<svg width="27" height="27" viewBox="0 0 27 27" fill="none" xmlns="http://www.w3.org/2000/svg">
<path d="M7.67649 7.67647C8.19719 7.15578 9.04141 7.15578 9.56211 7.67647L13.3334 11.4477L17.1046 7.67648C17.6253 7.15578 18.4695 7.15579 18.9902 7.67648C19.5109 8.19718 19.5109 9.0414 18.9902 9.5621L15.219 13.3333L18.9902 17.1046C19.5109 17.6253 19.5109 18.4695 18.9902 18.9902C18.4695 19.5109 17.6253 19.5109 17.1046 18.9902L13.3334 15.219L9.56211 18.9902C9.04141 19.5109 8.19719 19.5109 7.67649 18.9902C7.1558 18.4695 7.1558 17.6253 7.67649 17.1046L11.4477 13.3333L7.67649 9.56209C7.1558 9.04139 7.1558 8.19717 7.67649 7.67647Z" fill="#F54341"/>
<path fill-rule="evenodd" clip-rule="evenodd" d="M13.3333 0C5.98533 0 0 5.98533 0 13.3333C0 20.6813 5.98533 26.6667 13.3333 26.6667C20.6813 26.6667 26.6667 20.6813 26.6667 13.3333C26.6667 5.98533 20.6813 0 13.3333 0ZM13.3333 2.66667C19.2402 2.66667 24 7.4265 24 13.3333C24 19.2402 19.2402 24 13.3333 24C7.4265 24 2.66667 19.2402 2.66667 13.3333C2.66667 7.4265 7.4265 2.66667 13.3333 2.66667Z" fill="#F54341"/>
</svg>
