<svg width="27" height="27" viewBox="0 0 27 27" fill="none" xmlns="http://www.w3.org/2000/svg">
<path fill-rule="evenodd" clip-rule="evenodd" d="M13.335 0C5.98186 0 0 5.98186 0 13.335C0 20.6881 5.98186 26.67 13.335 26.67C20.6881 26.67 26.67 20.6881 26.67 13.335C26.67 5.98186 20.6881 0 13.335 0ZM15.163 5.55625L14.4463 15.5575H12.2238L11.5481 5.55625H15.163ZM13.335 22.225C12.1071 22.225 11.1125 21.2304 11.1125 20.0025C11.1125 18.7746 12.1071 17.78 13.335 17.78C14.5629 17.78 15.5575 18.7746 15.5575 20.0025C15.5575 21.2304 14.5629 22.225 13.335 22.225Z" fill="#56C3FF"/>
</svg>
