<svg width="27" height="24" viewBox="0 0 27 24" fill="none" xmlns="http://www.w3.org/2000/svg">
<path fill-rule="evenodd" clip-rule="evenodd" d="M11.6192 0.460642C12.1424 0.15865 12.7328 0 13.3333 0C13.9338 0 14.5242 0.15865 15.0475 0.460642C15.5708 0.762634 16.0093 1.19777 16.3207 1.72408L16.3241 1.72975L26.189 18.611L26.1984 18.6275C26.5035 19.169 26.6649 19.7831 26.6667 20.4084C26.6684 21.0338 26.5103 21.6488 26.2082 22.1921C25.906 22.7354 25.4704 23.1882 24.9446 23.5053C24.4188 23.8225 23.8211 23.993 23.211 23.9999L23.1982 24L3.45565 23.9999C2.84558 23.9931 2.24791 23.8225 1.72209 23.5053C1.19627 23.1882 0.760622 22.7354 0.458499 22.1921C0.156376 21.6488 -0.00169453 21.0338 1.36998e-05 20.4084C0.001722 19.7831 0.16315 19.169 0.468236 18.6275L0.477697 18.611L10.3459 1.72407C10.6573 1.19776 11.0959 0.762634 11.6192 0.460642ZM13.3333 2.38773C13.1332 2.38773 12.9364 2.44061 12.7619 2.54127C12.5883 2.64148 12.4427 2.78567 12.3389 2.96004L2.4816 19.8284C2.3824 20.0072 2.32994 20.2093 2.32937 20.4151C2.3288 20.6236 2.38149 20.8286 2.4822 21.0097C2.58291 21.1908 2.72813 21.3417 2.9034 21.4474C3.07714 21.5522 3.27441 21.609 3.4759 21.6122H23.1908C23.3923 21.609 23.5895 21.5522 23.7633 21.4474C23.9385 21.3417 24.0838 21.1908 24.1845 21.0097C24.2852 20.8286 24.3379 20.6236 24.3373 20.4151C24.3367 20.2093 24.2843 20.0072 24.1851 19.8284L14.3291 2.96242C14.3287 2.96163 14.3282 2.96083 14.3277 2.96004C14.224 2.78567 14.0784 2.64148 13.9047 2.54127C13.7303 2.44061 13.5335 2.38773 13.3333 2.38773ZM13.3333 7.28584C13.9766 7.28584 14.498 7.82035 14.498 8.4797V13.2552C14.498 13.9145 13.9766 14.449 13.3333 14.449C12.6901 14.449 12.1686 13.9145 12.1686 13.2552V8.4797C12.1686 7.82035 12.6901 7.28584 13.3333 7.28584ZM12.1686 18.0306C12.1686 17.3713 12.6901 16.8367 13.3333 16.8367H13.345C13.9882 16.8367 14.5097 17.3713 14.5097 18.0306C14.5097 18.69 13.9882 19.2245 13.345 19.2245H13.3333C12.6901 19.2245 12.1686 18.69 12.1686 18.0306Z" fill="#FF8933"/>
</svg>
